<svg xmlns="http://www.w3.org/2000/svg" version="1.1" xmlns:xlink="http://www.w3.org/1999/xlink" width="753.91205" height="860.0177"><svg xmlns="http://www.w3.org/2000/svg" version="1.1" xmlns:xlink="http://www.w3.org/1999/xlink" width="753.91205" height="860.0177"><svg version="1.1" width="753.91205" height="860.0177" id="svg19" sodipodi:docname="hydra_hex.svg" inkscape:version="1.3.2 (091e20e, 2023-11-25)" xmlns:inkscape="http://www.inkscape.org/namespaces/inkscape" xmlns:sodipodi="http://sodipodi.sourceforge.net/DTD/sodipodi-0.dtd" xmlns="http://www.w3.org/2000/svg" xmlns:svg="http://www.w3.org/2000/svg">
  <defs id="defs19"></defs>
  <sodipodi:namedview id="namedview19" pagecolor="#ffffff" bordercolor="#000000" borderopacity="0.25" inkscape:showpageshadow="2" inkscape:pageopacity="0.0" inkscape:pagecheckerboard="0" inkscape:deskcolor="#d1d1d1" inkscape:zoom="0.58963618" inkscape:cx="631.7455" inkscape:cy="450.27766" inkscape:window-width="1512" inkscape:window-height="916" inkscape:window-x="0" inkscape:window-y="38" inkscape:window-maximized="0" inkscape:current-layer="svg19"></sodipodi:namedview>
  <path d="m 384.78012,1.2618113 c 2.3506,1.16266 4.57034,2.442771 6.80713,3.811523 1.26143,0.731745 1.26143,0.731745 2.54834,1.478272 1.8131,1.055521 3.61993,2.121899 5.4209,3.197998 2.93431,1.7531317 5.88417,3.4771167 8.83935,5.1948237 4.08574,2.37568 8.16558,4.761036 12.24219,7.152344 5.70431,3.333555 11.46611,6.552078 17.25317,9.739014 6.11601,3.374938 12.16303,6.861298 18.20215,10.371578 14.06001,8.17157 28.20655,16.18986 42.37232,24.17627 8.39398,4.74116 16.73832,9.56614 25.08105,14.39673 7.60242,4.39276 15.24588,8.70632 22.91553,12.98047 7.45788,4.15725 14.8726,8.367496 22.21289,12.728756 7.3204,4.33844 14.71992,8.53797 22.11389,12.74918 8.25654,4.7038 16.47933,9.45963 24.67322,14.27206 8.3483,4.89925 16.77168,9.64218 25.25,14.3125 9.31103,5.12957 18.50249,10.42045 27.625,15.875 8.46447,5.06009 16.97572,9.97371 25.64502,14.67334 7.50698,4.08435 14.87804,8.38848 22.24145,12.72535 5.19021,3.05042 10.40068,6.04859 15.67212,8.95678 1.0489,0.58089 2.09779,1.16177 3.17847,1.76026 2.00045,1.10368 4.00562,2.19889 6.01611,3.28418 5.7846,3.19866 10.12494,5.79693 12.30933,12.35009 0.097,2.32833 0.13098,4.65942 0.13422,6.98977 0.002,0.71922 0.005,1.43845 0.007,2.17946 0.007,2.42862 0.006,4.85718 0.006,7.28581 0.003,1.75135 0.007,3.5027 0.0111,5.25406 0.01,4.8273 0.0137,9.6546 0.0164,14.48192 0.004,5.20052 0.0135,10.40104 0.0222,15.60156 0.0198,12.56544 0.0298,25.13088 0.0387,37.69633 0.004,5.91315 0.01,11.8263 0.015,17.73945 0.017,19.64884 0.0315,39.29768 0.0388,58.94652 0.002,5.10048 0.004,10.20096 0.006,15.30144 4.9e-4,1.26774 9.7e-4,2.53548 0.001,3.84164 0.008,20.54964 0.0336,41.09922 0.0661,61.64883 0.033,21.0839 0.0511,42.16776 0.0543,63.25169 0.002,11.84356 0.011,23.68704 0.0365,35.53057 0.0217,10.08358 0.0298,20.16705 0.02,30.25065 -0.005,5.14704 -0.003,10.29388 0.0168,15.4409 0.0175,4.70964 0.0167,9.41891 10e-4,14.12856 -0.002,1.70593 0.002,3.41189 0.0138,5.11778 0.015,2.31572 0.005,4.63009 -0.0102,6.94577 9.8e-4,1.28715 0.002,2.57429 0.003,3.90044 -0.68703,4.78333 -2.79904,7.84668 -6.26283,11.14996 -5.41897,3.90387 -11.07769,7.21749 -16.92261,10.44189 -2.06015,1.15058 -4.12005,2.30163 -6.17969,3.45313 -1.03093,0.57428 -2.06185,1.14855 -3.12402,1.74023 -4.45655,2.49081 -8.89056,5.02027 -13.32129,7.55664 -0.84965,0.48582 -1.69931,0.97163 -2.57471,1.47217 -6.90177,3.95028 -13.789,7.92564 -20.67529,11.90283 -18.68665,10.79155 -37.42199,21.49609 -56.21436,32.10254 -15.23738,8.60283 -30.40628,17.32319 -45.55908,26.07398 -11.90548,6.87294 -23.84268,13.68991 -35.78906,20.49145 -9.24047,5.26544 -18.44932,10.5794 -27.625,15.95703 -8.1989,4.80281 -16.44786,9.50308 -24.75,14.125 -10.20995,5.6854 -20.32076,11.52416 -30.40235,17.4336 -7.43877,4.35883 -14.9123,8.65692 -22.38427,12.95849 -6.28288,3.62009 -12.55201,7.26215 -18.80616,10.93164 -2.95,1.72722 -5.90641,3.44299 -8.86425,5.15674 -4.25095,2.4635 -8.46931,4.9757 -12.67969,7.50781 -2.20386,1.29655 -4.40827,2.59215 -6.61328,3.88672 -0.99911,0.61368 -1.99821,1.22735 -3.02759,1.85962 -6.90855,4.00285 -12.74466,5.85908 -20.72241,4.26538 -3.94509,-1.59769 -7.40919,-3.73085 -11,-6 -1.92885,-1.08633 -3.86392,-2.16168 -5.80469,-3.22656 -2.02395,-1.13189 -4.04737,-2.26473 -6.07031,-3.39844 -1.08571,-0.60827 -2.17143,-1.21655 -3.29004,-1.84326 -9.4539,-5.30418 -18.87118,-10.67061 -28.27441,-16.06396 -3.4734,-1.99105 -6.94963,-3.97711 -10.42603,-5.96289 -2.6324,-1.50368 -5.26432,-3.00819 -7.89624,-4.5127 -3.45927,-1.97691 -6.92031,-3.95064 -10.38281,-5.92187 -9.16902,-5.22356 -18.30985,-10.49122 -27.41797,-15.82032 -12.24127,-7.16 -24.55218,-14.19608 -36.87305,-21.21777 -6.43981,-3.67065 -12.87407,-7.35103 -19.30932,-11.02966 -1.74647,-0.99831 -3.49297,-1.99656 -5.23951,-2.99475 -0.57669,-0.3296 -1.15338,-0.6592 -1.74755,-0.99878 -3.53903,-2.02223 -7.07936,-4.04214 -10.62069,-6.06034 -2.96622,-1.69049 -5.93193,-3.38186 -8.89738,-5.0737 -0.58295,-0.33255 -1.1659,-0.66511 -1.76651,-1.00775 -8.08595,-4.61513 -16.13922,-9.28346 -24.17099,-13.99225 -9.08307,-5.3243 -18.24256,-10.49723 -27.44238,-15.6167 -8.34028,-4.65246 -16.59141,-9.44664 -24.827405,-14.28076 -5.9524,-3.48697 -11.93684,-6.90087 -17.98022,-10.22754 -6.22348,-3.4261 -12.36838,-6.96011 -18.47754,-10.58569 -6.27873,-3.71513 -12.61273,-7.33105 -18.95291,-10.93991 -3.62115,-2.06356 -7.23698,-4.13644 -10.85326,-6.20851 -3.92236,-2.24562 -7.85675,-4.46905 -11.79442,-6.68776 -1.97444,-1.12936 -3.94842,-2.25953 -5.92187,-3.39063 -0.89872,-0.49927 -1.79744,-0.99854 -2.72339,-1.51294 -5.0941595,-2.94764 -9.3693695,-5.91329 -11.8391095,-11.42456 -0.91029005,-4.45349 -1.12694005,-8.68846 -1.13143005,-13.22838 -0.002,-0.70858 -0.004,-1.41716 -0.006,-2.14721 -0.006,-2.37436 -0.004,-4.74866 -0.003,-7.12303 -0.003,-1.71952 -0.006,-3.43904 -0.009,-5.15856 -0.008,-4.72546 -0.01,-9.4509 -0.0106,-14.17636 -0.002,-5.09622 -0.009,-10.19242 -0.0161,-15.28863 -0.0136,-11.14239 -0.0196,-22.28477 -0.024,-33.42717 -0.003,-6.9561 -0.007,-13.91221 -0.0115,-20.86831 -0.0122,-19.25693 -0.0225,-38.51385 -0.0259,-57.77078 -2.2e-4,-1.23227 -4.4e-4,-2.46454 -6.6e-4,-3.73416 -2.2e-4,-1.23522 -4.4e-4,-2.47044 -6.7e-4,-3.74309 -4.4e-4,-2.50304 -8.9e-4,-5.00608 -0.001,-7.50912 -2.2e-4,-1.2416 -4.4e-4,-2.48319 -6.7e-4,-3.76241 -0.004,-20.12776 -0.0214,-40.25549 -0.0447,-60.38323 -0.0237,-20.66138 -0.0362,-41.32274 -0.0374,-61.98413 -9.1e-4,-11.60211 -0.007,-23.20418 -0.0248,-34.80628 -0.0154,-9.87702 -0.0205,-19.75398 -0.0123,-29.63102 0.004,-5.03994 0.003,-10.07976 -0.0111,-15.11969 -0.0127,-4.61397 -0.0116,-9.22772 5.9e-4,-13.8417 0.002,-1.66886 -0.001,-3.33774 -0.01,-5.00658 -0.0877,-17.9534 -0.0877,-17.9534 4.92989005,-24.2279 4.22186,-3.28839 8.5310195,-6.00475 13.2629395,-8.49976 1.60405,-0.8689 3.20684,-1.74014 4.80859,-2.61328 1.29527,-0.70503 1.29527,-0.70503 2.6167,-1.42431 5.08827,-2.80903 10.1091,-5.735 15.13721,-8.64991 9.29759,-5.38065 18.60857,-10.73642 27.9375,-16.0625 0.59009,-0.33701 1.18018,-0.67402 1.78815,-1.02124 5.8278,-3.32834 11.65719,-6.65387 17.48919,-9.97485 1.72018,-0.98025 3.44024,-1.96071 5.16016,-2.94141 0.8362,-0.47679 1.6724,-0.95358 2.53393,-1.44482 5.469715,-3.1263 10.911995,-6.29698 16.345715,-9.48535 9.70141,-5.69165 19.46205,-11.25783 29.30786,-16.69483 7.99643,-4.41583 15.94551,-8.88298 23.79492,-13.55493 5.68845,-3.37803 11.43958,-6.63805 17.20508,-9.88257 8.27825,-4.66026 16.52608,-9.369506 24.75,-14.124996 11.97353,-6.92269 23.97598,-13.79376 35.98859,-20.64828 4.17074,-2.38011 8.33956,-4.76357 12.5075,-7.1486 2.37623,-1.3595 4.75254,-2.71887 7.12891,-4.07812 0.58404,-0.33408 1.16809,-0.66816 1.76984,-1.01236 7.87376,-4.50267 15.76408,-8.975 23.66766,-13.42514 7.71143,-4.34231 15.36831,-8.76916 23,-13.25 9.79099,-5.747114 19.68531,-11.286488 29.62427,-16.771728 7.2687,-4.019233 14.47463,-8.1243467 21.60413,-12.3854977 7.44293,-4.44721097 13.65778,-7.142613 22.4021,-4.154297 z" fill="#FDFDFD" id="path2" style="fill:#fdfdfd;fill-opacity:1"></path>
  <path d="m 384.78012,1.2618113 c 2.3506,1.16266 4.57034,2.442771 6.80713,3.811523 1.26143,0.731745 1.26143,0.731745 2.54834,1.478272 1.8131,1.055521 3.61993,2.121899 5.4209,3.197998 2.93431,1.7531317 5.88417,3.4771167 8.83935,5.1948237 4.08574,2.37568 8.16558,4.761036 12.24219,7.152344 5.70431,3.333555 11.46611,6.552078 17.25317,9.739014 6.11601,3.374938 12.16303,6.861298 18.20215,10.371578 14.06001,8.17157 28.20655,16.18986 42.37232,24.17627 8.39398,4.74116 16.73832,9.56614 25.08105,14.39673 7.60242,4.39276 15.24588,8.70632 22.91553,12.98047 7.45788,4.15725 14.8726,8.367496 22.21289,12.728756 7.3204,4.33844 14.71992,8.53797 22.11389,12.74918 8.25654,4.7038 16.47933,9.45963 24.67322,14.27206 8.3483,4.89925 16.77168,9.64218 25.25,14.3125 9.31103,5.12957 18.50249,10.42045 27.625,15.875 8.46447,5.06009 16.97572,9.97371 25.64502,14.67334 7.50698,4.08435 14.87804,8.38848 22.24145,12.72535 5.19021,3.05042 10.40068,6.04859 15.67212,8.95678 1.0489,0.58089 2.09779,1.16177 3.17847,1.76026 2.00045,1.10368 4.00562,2.19889 6.01611,3.28418 5.7846,3.19866 10.12494,5.79693 12.30933,12.35009 0.097,2.32833 0.13098,4.65942 0.13422,6.98977 0.002,0.71922 0.005,1.43845 0.007,2.17946 0.007,2.42862 0.006,4.85718 0.006,7.28581 0.003,1.75135 0.007,3.5027 0.0111,5.25406 0.01,4.8273 0.0137,9.6546 0.0164,14.48192 0.004,5.20052 0.0135,10.40104 0.0222,15.60156 0.0198,12.56544 0.0298,25.13088 0.0387,37.69633 0.004,5.91315 0.01,11.8263 0.015,17.73945 0.017,19.64884 0.0315,39.29768 0.0388,58.94652 0.002,5.10048 0.004,10.20096 0.006,15.30144 4.9e-4,1.26774 9.7e-4,2.53548 0.001,3.84164 0.008,20.54964 0.0336,41.09922 0.0661,61.64883 0.033,21.0839 0.0511,42.16776 0.0543,63.25169 0.002,11.84356 0.011,23.68704 0.0365,35.53057 0.0217,10.08358 0.0298,20.16705 0.02,30.25065 -0.005,5.14704 -0.003,10.29388 0.0168,15.4409 0.0175,4.70964 0.0167,9.41891 10e-4,14.12856 -0.002,1.70593 0.002,3.41189 0.0138,5.11778 0.015,2.31572 0.005,4.63009 -0.0102,6.94577 9.8e-4,1.28715 0.002,2.57429 0.003,3.90044 -0.68703,4.78333 -2.79904,7.84668 -6.26283,11.14996 -5.41897,3.90387 -11.07769,7.21749 -16.92261,10.44189 -2.06015,1.15058 -4.12005,2.30163 -6.17969,3.45313 -1.03093,0.57428 -2.06185,1.14855 -3.12402,1.74023 -4.45655,2.49081 -8.89056,5.02027 -13.32129,7.55664 -0.84965,0.48582 -1.69931,0.97163 -2.57471,1.47217 -6.90177,3.95028 -13.789,7.92564 -20.67529,11.90283 -18.68665,10.79155 -37.42199,21.49609 -56.21436,32.10254 -15.23738,8.60283 -30.40628,17.32319 -45.55908,26.07398 -11.90548,6.87294 -23.84268,13.68991 -35.78906,20.49145 -9.24047,5.26544 -18.44932,10.5794 -27.625,15.95703 -8.1989,4.80281 -16.44786,9.50308 -24.75,14.125 -10.20995,5.6854 -20.32076,11.52416 -30.40235,17.4336 -7.43877,4.35883 -14.9123,8.65692 -22.38427,12.95849 -6.28288,3.62009 -12.55201,7.26215 -18.80616,10.93164 -2.95,1.72722 -5.90641,3.44299 -8.86425,5.15674 -4.25095,2.4635 -8.46931,4.9757 -12.67969,7.50781 -2.20386,1.29655 -4.40827,2.59215 -6.61328,3.88672 -0.99911,0.61368 -1.99821,1.22735 -3.02759,1.85962 -6.90855,4.00285 -12.74466,5.85908 -20.72241,4.26538 -3.94509,-1.59769 -7.40919,-3.73085 -11,-6 -1.92885,-1.08633 -3.86392,-2.16168 -5.80469,-3.22656 -2.02395,-1.13189 -4.04737,-2.26473 -6.07031,-3.39844 -1.08571,-0.60827 -2.17143,-1.21655 -3.29004,-1.84326 -9.4539,-5.30418 -18.87118,-10.67061 -28.27441,-16.06396 -3.4734,-1.99105 -6.94963,-3.97711 -10.42603,-5.96289 -2.6324,-1.50368 -5.26432,-3.00819 -7.89624,-4.5127 -3.45927,-1.97691 -6.92031,-3.95064 -10.38281,-5.92187 -9.16902,-5.22356 -18.30985,-10.49122 -27.41797,-15.82032 -12.24127,-7.16 -24.55218,-14.19608 -36.87305,-21.21777 -6.43981,-3.67065 -12.87407,-7.35103 -19.30932,-11.02966 -1.74647,-0.99831 -3.49297,-1.99656 -5.23951,-2.99475 -0.57669,-0.3296 -1.15338,-0.6592 -1.74755,-0.99878 -3.53903,-2.02223 -7.07936,-4.04214 -10.62069,-6.06034 -2.96622,-1.69049 -5.93193,-3.38186 -8.89738,-5.0737 -0.58295,-0.33255 -1.1659,-0.66511 -1.76651,-1.00775 -8.08595,-4.61513 -16.13922,-9.28346 -24.17099,-13.99225 -9.08307,-5.3243 -18.24256,-10.49723 -27.44238,-15.6167 -8.34028,-4.65246 -16.59141,-9.44664 -24.827405,-14.28076 -5.9524,-3.48697 -11.93684,-6.90087 -17.98022,-10.22754 -6.22348,-3.4261 -12.36838,-6.96011 -18.47754,-10.58569 -6.27873,-3.71513 -12.61273,-7.33105 -18.95291,-10.93991 -3.62115,-2.06356 -7.23698,-4.13644 -10.85326,-6.20851 -3.92236,-2.24562 -7.85675,-4.46905 -11.79442,-6.68776 -1.97444,-1.12936 -3.94842,-2.25953 -5.92187,-3.39063 -0.89872,-0.49927 -1.79744,-0.99854 -2.72339,-1.51294 -5.0941595,-2.94764 -9.3693695,-5.91329 -11.8391095,-11.42456 -0.91029005,-4.45349 -1.12694005,-8.68846 -1.13143005,-13.22838 -0.002,-0.70858 -0.004,-1.41716 -0.006,-2.14721 -0.006,-2.37436 -0.004,-4.74866 -0.003,-7.12303 -0.003,-1.71952 -0.006,-3.43904 -0.009,-5.15856 -0.008,-4.72546 -0.01,-9.4509 -0.0106,-14.17636 -0.002,-5.09622 -0.009,-10.19242 -0.0161,-15.28863 -0.0136,-11.14239 -0.0196,-22.28477 -0.024,-33.42717 -0.003,-6.9561 -0.007,-13.91221 -0.0115,-20.86831 -0.0122,-19.25693 -0.0225,-38.51385 -0.0259,-57.77078 -2.2e-4,-1.23227 -4.4e-4,-2.46454 -6.6e-4,-3.73416 -2.2e-4,-1.23522 -4.4e-4,-2.47044 -6.7e-4,-3.74309 -4.4e-4,-2.50304 -8.9e-4,-5.00608 -0.001,-7.50912 -2.2e-4,-1.2416 -4.4e-4,-2.48319 -6.7e-4,-3.76241 -0.004,-20.12776 -0.0214,-40.25549 -0.0447,-60.38323 -0.0237,-20.66138 -0.0362,-41.32274 -0.0374,-61.98413 -9.1e-4,-11.60211 -0.007,-23.20418 -0.0248,-34.80628 -0.0154,-9.87702 -0.0205,-19.75398 -0.0123,-29.63102 0.004,-5.03994 0.003,-10.07976 -0.0111,-15.11969 -0.0127,-4.61397 -0.0116,-9.22772 5.9e-4,-13.8417 0.002,-1.66886 -0.001,-3.33774 -0.01,-5.00658 -0.0877,-17.9534 -0.0877,-17.9534 4.92989005,-24.2279 4.22186,-3.28839 8.5310195,-6.00475 13.2629395,-8.49976 1.60405,-0.8689 3.20684,-1.74014 4.80859,-2.61328 1.29527,-0.70503 1.29527,-0.70503 2.6167,-1.42431 5.08827,-2.80903 10.1091,-5.735 15.13721,-8.64991 9.29759,-5.38065 18.60857,-10.73642 27.9375,-16.0625 0.59009,-0.33701 1.18018,-0.67402 1.78815,-1.02124 5.8278,-3.32834 11.65719,-6.65387 17.48919,-9.97485 1.72018,-0.98025 3.44024,-1.96071 5.16016,-2.94141 0.8362,-0.47679 1.6724,-0.95358 2.53393,-1.44482 5.469715,-3.1263 10.911995,-6.29698 16.345715,-9.48535 9.70141,-5.69165 19.46205,-11.25783 29.30786,-16.69483 7.99643,-4.41583 15.94551,-8.88298 23.79492,-13.55493 5.68845,-3.37803 11.43958,-6.63805 17.20508,-9.88257 8.27825,-4.66026 16.52608,-9.369506 24.75,-14.124996 11.97353,-6.92269 23.97598,-13.79376 35.98859,-20.64828 4.17074,-2.38011 8.33956,-4.76357 12.5075,-7.1486 2.37623,-1.3595 4.75254,-2.71887 7.12891,-4.07812 0.58404,-0.33408 1.16809,-0.66816 1.76984,-1.01236 7.87376,-4.50267 15.76408,-8.975 23.66766,-13.42514 7.71143,-4.34231 15.36831,-8.76916 23,-13.25 9.79099,-5.747114 19.68531,-11.286488 29.62427,-16.771728 7.2687,-4.019233 14.47463,-8.1243467 21.60413,-12.3854977 7.44293,-4.44721097 13.65778,-7.142613 22.4021,-4.154297 z M 368.64584,13.307709 c -1.09063,0.614883 -2.18125,1.229766 -3.30493,1.863282 -1.16805,0.675499 -2.33593,1.351287 -3.50366,2.027343 -1.21738,0.692525 -2.43541,1.383919 -3.65405,2.074219 -2.4542,1.393106 -4.90399,2.793485 -7.34986,4.201172 -2.98266,1.715283 -5.97137,3.418931 -8.96484,5.115234 -10.47121,5.943335 -20.88736,11.983195 -31.31348,18.005125 -11.62544,6.71099 -23.28242,13.36632 -34.9414,20.0188 -2.92449,1.67018 -5.84707,3.34363 -8.76856,5.01904 -9.36786,5.36979 -18.76589,10.68038 -28.19531,15.94141 -7.5636,4.22213 -15.08478,8.49771 -22.53296,12.919916 -6.63603,3.93083 -13.33032,7.75822 -20.02954,11.58008 -0.89509,0.51068 -0.89509,0.51068 -1.80826,1.03168 -3.06697,1.74951 -6.13439,3.49825 -9.20199,5.24664 -5.31572,3.03018 -10.62762,6.06702 -15.9397,9.10355 -1.74119,0.99521 -3.48251,1.99019 -5.22388,2.98508 -5.2981,3.02698 -10.59582,6.05464 -15.89197,9.08503 -2.97785,1.70388 -5.95596,3.40732 -8.9342,5.11052 -0.87734,0.50176 -0.87734,0.50176 -1.7724,1.01364 -7.83283,4.47852 -15.67978,8.93127 -23.5401,13.36136 -9.25542,5.21684 -18.461195,10.51659 -27.657725,15.83643 -10.07154,5.81995 -20.19709,11.54184 -30.33007,17.25391 -4.73239,2.67061 -9.45032,5.36572 -14.16114,8.07421 -2.92315,1.67157 -5.85461,3.32835 -8.78466,4.9878 -1.79604,1.02233 -3.59139,2.04586 -5.38633,3.07013 -1.19686,0.6813 -2.39511,1.36016 -3.59478,2.0365 -1.69359,0.95533 -3.38174,1.92027 -5.06968,2.88555 -0.98967,0.56179 -1.97935,1.12358 -2.99902,1.7024 -2.62643,1.52505 -2.62643,1.52505 -4.3916,4.59057 -0.30656,3.19527 -0.30656,3.19527 -0.26006,6.93009 -0.004,0.71277 -0.008,1.42554 -0.0115,2.15991 -0.0104,2.40671 -0.006,4.81318 -0.003,7.21991 -0.004,1.73557 -0.01,3.47114 -0.0159,5.2067 -0.0142,4.78365 -0.0159,9.56723 -0.0154,14.35089 -0.002,5.15348 -0.0147,10.30693 -0.0262,15.4604 -0.0229,11.27459 -0.0308,22.54916 -0.0358,33.82378 -0.003,7.03563 -0.01,14.07126 -0.017,21.10689 -0.0196,19.46784 -0.036,38.93567 -0.0389,58.40352 -1.9e-4,1.2465 -3.8e-4,2.493 -5.7e-4,3.77727 -3.7e-4,2.52712 -7.3e-4,5.05423 -10e-4,7.58135 -1.9e-4,1.25451 -3.7e-4,2.50903 -5.6e-4,3.80156 -1.8e-4,1.25604 -3.6e-4,2.51208 -5.5e-4,3.80618 -0.004,20.36281 -0.0306,40.72551 -0.0679,61.08827 -0.038,20.89067 -0.0574,41.78128 -0.0577,62.67198 -5.9e-4,11.73567 -0.009,23.47122 -0.038,35.20687 -0.0245,9.99103 -0.0318,19.98189 -0.0168,29.97295 0.007,5.10039 0.006,10.20043 -0.0164,15.30078 -0.0205,4.66588 -0.0181,9.33116 0.003,13.99703 0.004,1.69111 -0.001,3.38226 -0.0157,5.07331 -0.0181,2.2936 -0.005,4.58506 0.0149,6.87859 -8.1e-4,1.27537 -0.002,2.55075 -0.002,3.86477 0.78936,4.20079 2.37266,5.63732 5.62329,8.317 2.26907,1.56889 2.26907,1.56889 4.67578,2.83985 0.89824,0.49846 1.79647,0.99693 2.72192,1.5105 1.44283,0.78564 1.44283,0.78564 2.9148,1.58715 2.07381,1.14943 4.1467,2.30053 6.21875,3.45313 1.06734,0.59232 2.13469,1.18465 3.23437,1.79492 5.22353,2.93035 10.38375,5.96685 15.54688,9.00195 6.85317,4.01855 13.72568,7.98513 20.6875,11.8125 6.85466,3.77003 13.62526,7.67031 20.375,11.625 8.868035,5.19506 17.762345,10.3414 26.687505,15.4375 0.88113,0.50327 0.88113,0.50327 1.78006,1.0167 8.14072,4.64782 16.30141,9.25956 24.46994,13.8583 6.07261,3.41909 12.11115,6.87378 18.0625,10.5 7.55997,4.6049 15.29465,8.89077 23.02515,13.20118 15.68768,8.74806 31.24013,17.72765 46.79126,26.71557 8.17802,4.72037 16.38958,9.37856 24.61669,14.0127 6.69137,3.77311 13.34626,7.60484 19.98609,11.46777 6.24792,3.62793 12.53526,7.18328 18.83081,10.72778 7.26567,4.09339 14.49421,8.23784 21.67017,12.48633 14.4929,8.57061 29.06696,17.02924 43.81054,25.16236 2.80039,1.55559 5.44092,3.17072 8.07007,5.00756 3.22673,2.03512 5.32855,2.32941 9.08984,1.71094 5.73453,-1.94974 10.74999,-5.48973 15.82764,-8.73193 2.83525,-1.78102 5.74186,-3.42611 8.65674,-5.07276 1.16697,-0.66221 2.33363,-1.32499 3.5,-1.98828 0.60457,-0.34369 1.20914,-0.68739 1.83203,-1.0415 3.56555,-2.03603 7.116,-4.09813 10.66797,-6.15772 17.30825,-10.02965 34.63498,-20.02601 52.00897,-29.94134 14.54038,-8.2992 29.04664,-16.65766 43.52619,-25.06256 7.69767,-4.46767 15.40963,-8.90181 23.17749,-13.24634 7.58288,-4.25327 15.10212,-8.61688 22.62939,-12.96753 6.7923,-3.92494 13.59326,-7.83383 20.40796,-11.71973 15.24348,-8.69733 30.45471,-17.45129 45.59643,-26.3247 10.11846,-5.92832 20.3013,-11.72248 30.54834,-17.42554 8.16884,-4.55718 16.25057,-9.25145 24.31592,-13.98877 8.36264,-4.89864 16.81281,-9.63051 25.2815,-14.34277 6.41607,-3.57949 12.76893,-7.23803 19.03833,-11.06861 3.91619,-2.39167 7.89056,-4.61056 11.9851,-6.68164 2.25576,-1.51908 3.3282,-2.81775 4.73438,-5.16797 0.45344,-3.28053 0.45344,-3.28053 0.38311,-7.0219 0.005,-0.71055 0.01,-1.42109 0.015,-2.15317 0.013,-2.39323 0.005,-4.78591 -0.004,-7.17916 0.005,-1.72818 0.0111,-3.45636 0.0185,-5.18454 0.0164,-4.75862 0.0141,-9.51707 0.009,-14.27571 -0.003,-5.12824 0.0119,-10.25645 0.0241,-15.38467 0.0211,-10.05032 0.0256,-20.10057 0.0238,-30.15091 -10e-4,-8.16634 0.002,-16.33267 0.01,-24.49901 0.002,-2.34958 0.004,-4.69916 0.006,-7.04874 0.001,-1.16933 0.002,-2.33867 0.003,-3.54344 0.0189,-22.12944 0.0179,-44.25886 0.011,-66.38831 -0.006,-20.25928 0.0152,-40.51843 0.0484,-60.77768 0.0337,-20.78674 0.0489,-41.57342 0.0443,-62.36019 -0.002,-11.67641 0.003,-23.3527 0.0279,-35.02909 0.021,-9.93978 0.0246,-19.87938 0.006,-29.81916 -0.009,-5.07407 -0.0102,-10.14779 0.0104,-15.22182 0.0186,-4.6418 0.0143,-9.28297 -0.009,-13.92474 -0.004,-1.68233 9e-5,-3.36471 0.0136,-5.04698 0.0171,-2.28177 0.004,-4.56135 -0.0178,-6.84303 4.1e-4,-1.90314 4.1e-4,-1.90314 8.2e-4,-3.84472 -0.79259,-4.19244 -2.38088,-5.62568 -5.62444,-8.30303 -2.41726,-1.69535 -2.41726,-1.69535 -5,-3.1289 -0.95866,-0.55382 -1.91732,-1.10763 -2.90503,-1.67823 -1.02134,-0.57927 -2.04268,-1.15854 -3.09497,-1.75537 -1.06581,-0.61278 -2.13163,-1.22557 -3.22974,-1.85693 -3.2525,-1.86774 -6.51094,-3.72475 -9.77026,-5.58057 -1.83762,-1.05273 -3.67488,-2.10607 -5.51172,-3.16015 -4.30708,-2.46902 -8.61926,-4.92894 -12.93359,-7.38526 -4.24911,-2.41936 -8.49603,-4.84255 -12.74219,-7.26709 -0.8565,-0.48887 -1.713,-0.97775 -2.59546,-1.48144 -5.90368,-3.37353 -11.79272,-6.77177 -17.67773,-10.17774 -9.68231,-5.60255 -19.39153,-11.14748 -29.16431,-16.59082 -9.10965,-5.07585 -18.14257,-10.26816 -27.13843,-15.54272 -11.27475,-6.6049 -22.62879,-13.06963 -33.98169,-19.53882 -2.96412,-1.69016 -5.92647,-3.38337 -8.88769,-5.07861 -14.7438,-8.44053 -29.53031,-16.804956 -44.33588,-25.136726 -9.34967,-5.26616 -18.66747,-10.57083 -27.89649,-16.04589 -4.95716,-2.9301 -9.96773,-5.75102 -15.00976,-8.53223 -8.54562,-4.71483 -16.99227,-9.58824 -25.42871,-14.49512 -14.89708,-8.65983 -29.82354,-17.25787 -44.89136,-25.617917 -4.69243,-2.611082 -9.35256,-5.251252 -13.93774,-8.047119 -1.16584,-0.708058 -1.16584,-0.708058 -2.35523,-1.43042 -1.41181,-0.864575 -2.81697,-1.740156 -4.21338,-2.629394 -6.4053,-3.9236787 -10.62918,-3.6536157 -17.05249,0.01685 z" fill="#090909" id="path3"></path>
  <path d="m 429.67319,181.47567 c 5.95259,1.55366 11.67732,2.05484 17.79443,2.21167 22.06348,0.63406 22.06348,0.63406 29.68213,7.82349 3.1785,4.1497 3.66431,7.44756 3.58985,12.51953 -0.58259,4.14506 -2.34323,7.50697 -5.33985,10.41797 -5.57234,2.97573 -11.03243,3.82508 -17.25,4.625 -1.77635,0.23991 -3.55241,0.482 -5.32812,0.72656 -0.77763,0.10135 -1.55526,0.2027 -2.35645,0.30713 -2.25442,0.3169 -2.25442,0.3169 -5.06543,1.34131 5.0009,1.90943 10.00136,3.67637 15.11719,5.2539 1.88281,0.7461 1.88281,0.7461 3.88281,2.7461 0,4.57446 -0.45408,6.44138 -3.6875,9.75 -10.94435,7.95952 -24.31949,7.32838 -37.3125,6.25 -4.95909,-0.92109 -9.42962,-2.91279 -14,-5 -2.36984,-0.92991 -4.74481,-1.8469 -7.125,-2.75 -1.55074,-0.61102 -1.55074,-0.61102 -3.13281,-1.23438 -6.1019,-2.25996 -11.19236,-2.90806 -17.49219,-0.70312 -4.05296,2.10442 -5.55238,3.2225 -7.5,7.3125 -2.05572,9.25073 1.5374,16.49274 6.25,24.375 6.22218,8.50611 13.61943,15.84114 21.125,23.1875 22.77718,22.37432 42.60758,46.45244 43.16895,79.92016 0.11578,21.94862 -4.55018,39.71807 -12.14063,60.11719 -0.26398,0.71666 -0.52796,1.43333 -0.79994,2.17171 -0.4966,1.34415 -1.00032,2.68571 -1.51279,4.02389 -1.68411,4.56515 -2.3793,8.7705 -2.84059,13.57955 0.53625,-0.4009 1.0725,-0.8018 1.625,-1.21485 5.19463,-3.76781 10.50201,-7.03057 16.125,-10.09765 13.50298,-7.43967 27.63367,-15.44864 32.59766,-30.89454 3.14813,-13.47853 -2.32186,-25.75141 -7.78516,-37.79296 -3.70145,-8.20745 -7.26266,-16.26414 -9.5625,-25 -0.31566,-1.07085 -0.31566,-1.07085 -0.63769,-2.16333 -4.77537,-16.49538 -0.46512,-33.39465 7.39551,-48.05542 8.04167,-14.12403 21.39464,-22.06806 36.10937,-27.92188 8.18737,-2.24591 16.51773,-1.95823 24.94531,-1.85937 2.2148,0.0255 4.42965,0.0466 6.64453,0.0625 0.96914,0.0116 1.93827,0.0232 2.93677,0.0352 2.39127,-0.0896 4.31243,-0.47254 6.6062,-1.09766 11.7111,-0.95085 20.4819,0.14249 31.15235,5.15771 3.09956,1.41299 6.2806,2.59435 9.47265,3.77979 0.64389,0.24299 1.28778,0.48598 1.95117,0.73633 3.93581,1.46688 7.89731,2.82276 11.89258,4.11914 0.93763,0.30494 1.87527,0.60989 2.84131,0.92407 1.83343,0.59137 3.6696,1.17433 5.50879,1.74756 4.98838,1.60405 9.0395,3.29353 13.18115,6.5354 1.79359,3.58718 1.72488,7.09864 1,11 -2.9162,5.70097 -6.21765,10.10217 -12,13 -2.95434,0.34057 -2.95434,0.34057 -6.17578,0.29296 -1.15693,-0.01 -2.31387,-0.0193 -3.50586,-0.0293 -1.19818,-0.0251 -2.39637,-0.0503 -3.63086,-0.0762 -1.21752,-0.0135 -2.43504,-0.0271 -3.68945,-0.041 -2.9998,-0.0353 -5.9987,-0.0846 -8.99805,-0.14648 1.05961,0.40992 2.11922,0.81984 3.21094,1.24218 1.38813,0.544 2.77614,1.08829 4.16406,1.63282 1.04801,0.40412 1.04801,0.40412 2.11719,0.8164 5.28125,2.08203 5.28125,2.08203 7.50781,4.3086 0.375,3.375 0.375,3.375 0,7 -4.84666,5.85547 -11.46123,7.63816 -18.82031,8.39062 -16.10607,0.6932 -28.70349,-5.47332 -41.92969,-14.14062 -7.12566,-4.56567 -13.8119,-6.21113 -22.25,-5.25 -3.84746,1.5431 -5.29924,3.17329 -7,7 -1.77682,10.88304 6.04373,20.8411 11.76319,29.42797 14.1648,21.45741 19.61818,42.7465 16.81103,68.47437 -5.4047,26.29405 -23.85531,45.29663 -44.3125,61.23047 -3.70134,3.05568 -5.96569,6.09099 -6.76172,10.86719 0.75407,4.52441 2.57895,7.37158 6.08985,10.34765 5.88774,4.07039 12.57437,5.79039 19.41015,7.65235 1.08475,0.32484 1.08475,0.32484 2.19141,0.65625 11.07459,3.14435 23.09011,2.53281 34.51172,2.66015 1.57469,0.0206 3.14938,0.0416 4.72406,0.063 4.10319,0.0547 8.20642,0.1043 12.30969,0.15284 4.20363,0.0506 8.4072,0.1061 12.61078,0.16114 8.21739,0.10688 16.43484,0.20847 24.65234,0.30664 -2.71886,2.71886 -4.93311,2.77033 -8.69922,3.48828 -0.66908,0.12756 -1.33815,0.25512 -2.02751,0.38655 -32.60465,6.09309 -71.46256,11.3606 -101.96858,-5.3514 -1.96018,-1.39373 -3.623,-2.8076 -5.30469,-4.52343 -0.56976,-0.58008 -1.13953,-1.16016 -1.72656,-1.75782 -3.89101,-4.25982 -6.03431,-7.70742 -6.58594,-13.55468 0.8204,-9.68074 5.63027,-15.67211 12.86328,-21.875 1.86569,-1.52 3.7383,-3.03153 5.61719,-4.53516 16.15933,-12.99433 30.63753,-30.04402 33.21411,-51.4519 0.15159,-3.24443 0.17436,-6.45308 0.11792,-9.70044 -0.015,-1.14477 -0.03,-2.28954 -0.0454,-3.469 -0.52209,-20.50894 -10.39143,-36.75612 -21.47412,-53.48804 -5.36517,-8.58216 -9.04255,-16.95678 -7.98047,-27.16796 1.79892,-6.16616 5.67139,-10.52145 11,-14 7.231,-3.47278 15.24585,-2.79275 22.8125,-0.625 5.86673,2.14035 10.71877,5.43041 15.80933,8.96997 9.18574,6.3808 16.99366,8.83636 28.12817,8.78003 0.77989,0.004 1.55977,0.008 2.36328,0.0117 3.74729,0.35389 3.74729,0.35389 6.88672,-1.13671 -0.94101,-0.43571 -1.88203,-0.87141 -2.85156,-1.32032 -13.15209,-6.23012 -13.15209,-6.23012 -17.14844,-11.67968 0.45276,-3.28715 1.41744,-4.91409 4,-7 3.56928,-1.18976 6.79947,-1.12479 10.51172,-1.09766 0.72823,10e-4 1.45645,0.003 2.20674,0.004 2.32306,0.006 4.64602,0.0181 6.96904,0.0309 1.57617,0.005 3.15234,0.01 4.72852,0.0137 3.86136,0.011 7.72266,0.0283 11.58398,0.0488 0.66,-1.0725 1.32,-2.145 2,-3.25 0.37125,-0.60328 0.7425,-1.20657 1.125,-1.82813 1.15124,-2.17667 1.15124,-2.17667 0.875,-5.92187 -1.04156,-0.30293 -2.08312,-0.60586 -3.15625,-0.91797 -3.82932,-1.11694 -7.65499,-2.24588 -11.479,-3.38086 -1.50429,-0.44604 -3.00911,-0.89025 -4.51465,-1.33203 -7.3024,-2.15053 -14.38294,-4.47422 -21.3501,-7.55664 -8.5067,-3.73911 -16.10618,-5.76733 -25.5,-4.8125 -0.77376,0.3329 -1.54752,0.6658 -2.34472,1.00878 -2.82491,1.05454 -4.75682,1.19696 -7.75293,1.11622 -0.96076,-0.0171 -1.92151,-0.0342 -2.91138,-0.0518 -1.00764,-0.0242 -2.01529,-0.0483 -3.05347,-0.0732 -18.8558,-0.20568 -33.02706,2.95353 -47.19922,16.09765 -10.51299,11.03364 -14.23439,23.74718 -14.23901,38.63892 0.46942,15.08099 7.39206,28.91114 13.62891,42.37305 5.792,12.62343 9.45431,25.33585 6.06323,39.19506 -6.6231,17.64633 -21.62871,26.35223 -37.09375,35.3125 -14.26777,8.27222 -24.76508,15.49281 -31.27734,31.23438 -1.00332,3.85081 -1.11905,7.51153 -1.07032,11.46094 0.003,0.75112 0.006,1.50224 0.01,2.27612 0.08,5.39092 0.91087,10.18158 2.24048,15.41138 -0.44141,2.23046 -0.44141,2.23046 -1,4 -6.23774,-6.52128 -10.12907,-13.09976 -10.4375,-22.3125 0.29247,-7.35363 1.54823,-15.11992 5.01172,-21.66016 1.61525,-3.42964 1.82173,-5.88057 1.92578,-9.65234 0.81968,-14.57202 6.35233,-27.87706 11.26074,-41.48389 8.83385,-24.598 11.73246,-52.04265 0.67676,-76.39111 -8.07157,-16.73631 -20.39442,-29.5649 -33.49951,-42.46973 -29.89383,-29.50272 -29.89383,-29.50272 -30.25049,-48.21777 -0.008,-7.26191 0.9035,-12.21771 5.96094,-17.55079 4.8959,-4.479 9.45646,-6.41401 16.10156,-7.01171 0.96422,-0.098 1.92844,-0.19594 2.92188,-0.29688 7.94655,0.11192 14.83408,2.86788 22.01562,6.04688 14.42815,6.29592 26.86988,7.66435 42.3125,4 0,-0.66 0,-1.32 0,-2 -1.0725,-0.0619 -2.145,-0.12375 -3.25,-0.1875 -6.39216,-0.78875 -13.57872,-3.22848 -18.60546,-7.32395 -1.14503,-1.48832 -1.14503,-1.48832 -1.14503,-3.92582 1.32506,-3.39547 3.0246,-4.48549 6,-6.5625 10.43458,-4.19928 21.93602,-5.44302 33,-7 0.2117,-1.45676 0.40963,-2.91551 0.60157,-4.375 0.11166,-0.81211 0.22333,-1.62422 0.33837,-2.46094 0.29951,-2.31335 0.29951,-2.31335 -1.56494,-4.16406 -4.644,-1.95537 -9.1934,-2.12904 -14.16504,-2.29078 -11.07184,-0.36076 -21.49908,-1.66294 -32.14746,-4.89672 -4.00295,-1.03388 -8.0748,-1.10081 -12.1875,-1.1875 -0.68183,-0.026 -1.36366,-0.0521 -2.06616,-0.0789 -5.18845,-0.0183 -7.62998,1.60312 -11.80884,4.45386 -3.30468,0.43359 -3.30468,0.43359 -6.875,0.4375 -16.14554,0.713 -31.8471,6.97335 -43.02343,18.92187 -10.71727,13.46634 -14.99284,28.53059 -13.10157,45.64067 3.62296,22.00191 16.01797,38.33451 30.6836,54.39062 15.26225,17.19255 27.45624,36.00628 27.5664,59.60938 0.0309,1.61068 0.0309,1.61068 0.0625,3.2539 0.0984,20.44552 -9.67328,36.94936 -19.82483,53.96494 -4.59108,7.70204 -9.04643,15.40651 -12.86267,23.53116 -0.33821,0.71841 -0.67643,1.43682 -1.0249,2.177 -5.02841,11.05228 -7.75569,21.9846 -8.6001,34.073 -0.66,0 -1.32,0 -2,0 -4.39989,-15.81488 -2.44002,-30.24114 5.4375,-44.625 1.8183,-3.15014 1.8183,-3.15014 1.25,-5.9375 -4.45519,-6.43528 -10.53275,-11.01663 -16.9375,-15.375 -1.50679,-1.04647 -3.0133,-2.09335 -4.51953,-3.14063 -1.08789,-0.7512 -1.08789,-0.7512 -2.19775,-1.51758 -14.44877,-9.9819 -30.39007,-21.03928 -34.03272,-39.40429 -1.24652,-12.83861 0.62152,-24.35354 4.42969,-36.60938 7.02426,-22.6477 12.69205,-46.74122 1.44531,-69.07812 -3.56305,-6.2054 -7.73188,-11.35339 -12.875,-16.3125 -0.66386,-0.64711 -1.32773,-1.29422 -2.01172,-1.96094 -14.33741,-12.50769 -33.985,-13.02355 -51.98828,-12.03906 -3.78415,0.50291 -7.43932,1.43886 -11.14453,2.35156 -5.77972,0.97207 -11.52313,0.72101 -17.36206,0.36133 -8.98373,-0.33742 -14.72594,3.66621 -21.55591,9.16211 -6.22729,4.64422 -12.94411,7.3884 -20.0708,10.33007 -4.05369,1.72624 -7.96218,3.75819 -11.8667,5.79493 -0.18311,4.02843 0.0584,6.48375 2,10 5.76013,-0.5541 5.76013,-0.5541 11.46094,-1.51172 7.156,-1.47947 14.19321,-1.73662 21.47656,-1.80078 1.51135,-0.0262 1.51135,-0.0262 3.05323,-0.053 8.90609,0.007 8.90609,0.007 13.00927,3.36547 0,3.13262 -0.41911,5.28862 -2.42578,7.7461 -5.03961,4.68487 -13.44189,11.25393 -20.57422,11.25393 0,0.66 0,1.32 0,2 14.57526,0.65835 24.70935,-1.0105 36,-11 0.94746,-0.88946 0.94746,-0.88946 1.91407,-1.79688 4.68958,-4.36151 9.41913,-7.09253 15.2539,-9.74609 2.95382,-1.51969 5.27285,-3.35438 7.83203,-5.45704 7.34397,-2.44799 15.08133,-1.2755 21.9336,1.89454 6.49596,3.47515 10.37265,9.07523 12.71484,16.03125 0.46655,2.75267 0.52224,5.40726 0.53906,8.19922 0.0142,1.05445 0.0284,2.1089 0.043,3.19531 -0.5742,9.16778 -3.35269,17.37101 -6.54297,25.92969 -0.40227,1.10029 -0.80453,2.20059 -1.21899,3.33422 -1.43637,3.92735 -2.88553,7.8498 -4.34448,11.7688 -0.69208,1.85968 -1.37717,3.72195 -2.06153,5.58448 -0.35965,0.95777 -0.71929,1.91554 -1.08984,2.90234 -2.46068,7.99472 -3.33569,15.68857 -3.28516,24.03516 0.005,0.96599 0.01,1.93198 0.0149,2.92724 0.11649,7.09866 0.83892,13.49315 3.2976,20.19776 0.35192,0.98871 0.70383,1.97742 1.06641,2.99609 5.39169,13.96858 14.37634,25.69214 25.05859,36.06641 8.02385,7.86162 15.1641,16.84688 15.34326,28.49633 -0.0102,0.76434 -0.0203,1.52867 -0.0308,2.31617 -0.0114,1.1958 -0.0114,1.1958 -0.023,2.41577 -0.169,6.02546 -1.10549,10.59052 -4.41455,15.70923 -0.4125,0.73089 -0.825,1.46179 -1.25,2.21484 -9.77915,16.25229 -27.24341,24.27599 -44.9375,28.91016 -11.15498,2.7555 -22.3529,4.20212 -33.8125,4.875 -1.34916,0.086 -1.34916,0.086 -2.72558,0.17382 -21.69132,1.19624 -43.09114,-2.8516 -64.27442,-7.17382 0,-0.66 0,-1.32 0,-2 0.76547,-0.008 1.53095,-0.0162 2.31961,-0.0245 7.32192,-0.0789 14.64366,-0.16649 21.96537,-0.26302 3.76142,-0.0493 7.52281,-0.0956 11.28436,-0.13435 52.45539,0.66468 52.45539,0.66468 97.18848,-23.35937 6.88633,-7.58495 8.69773,-14.84559 8.57421,-24.90625 -0.94407,-9.41851 -8.13497,-15.73014 -14.33203,-22.3125 -2.37342,-2.63326 -4.69933,-5.30302 -7,-8 -0.6484,-0.75797 -1.29679,-1.51594 -1.96484,-2.29688 -16.63537,-20.05185 -22.79298,-41.92984 -21.03516,-67.70312 1.7017,-16.21801 8.91849,-31.36874 14.94092,-46.33887 3.32062,-8.49386 5.25075,-19.41678 2.15283,-28.24316 -2.52009,-4.35362 -5.18316,-6.93553 -10.09375,-8.41797 -4.66788,-0.85754 -8.36102,-0.90614 -12.58593,1.42968 -1.70693,1.22373 -3.38819,2.48398 -5.04297,3.77735 -2.12633,1.60788 -4.00801,2.66897 -6.4336,3.73047 -3.2912,1.53677 -5.64935,3.47024 -8.3125,5.9375 -11.2354,10.3489 -22.60437,13.86634 -37.60547,13.41796 -5.34841,-0.29485 -10.49114,-1.15086 -14.70703,-4.72265 -1.3125,-1.57031 -1.3125,-1.57031 -1.9375,-4.38281 0.78857,-4.02171 2.10867,-5.20055 5.26953,-7.66407 4.55602,-2.94667 9.43873,-5.24671 14.35547,-7.52343 -8.79136,-0.36074 -16.23015,0.30918 -24.79687,2.3164 -5.34723,1.14118 -9.97769,1.82104 -15.01563,-0.7539 -4.70819,-5.51531 -7.30629,-12.31591 -7.1875,-19.56251 3.91461,-6.26169 9.22523,-8.34035 15.875,-11.125 8.11509,-3.49024 15.65475,-6.90975 22.75,-12.25 10.79752,-7.47272 18.3247,-10.15619 31.3042,-9.72045 5.90148,0.18018 11.22782,-0.23543 17.0083,-1.40455 20.30956,-3.91059 40.06654,-2.32346 58.0625,8.5 3.17541,2.15669 6.11396,4.47123 9,7 0.61489,0.53239 1.22977,1.06477 1.86328,1.61329 12.90194,11.9865 19.52662,29.49287 20.41016,46.76953 0.53956,18.00872 -3.59037,35.82209 -10.04224,52.61865 -2.12422,5.76693 -2.72052,10.87416 -2.6687,16.99854 -0.02,0.83789 -0.04,1.67578 -0.0605,2.53906 0.008,10.97359 5.41949,19.31748 12.94335,26.9375 5.25736,4.95779 10.63079,9.0658 16.79688,12.8164 8.07575,4.99874 16.19325,10.80209 22.75781,17.70704 0,0.66 0,1.32 0,2 11.8066,-10.64411 23.26337,-35.23734 24.16797,-50.91016 0.14298,-23.07731 -8.94597,-41.99514 -24.73047,-58.51953 -4.08239,-4.30483 -7.75568,-8.92267 -11.4375,-13.57031 -0.75281,-0.93457 -1.50562,-1.86914 -2.28125,-2.83203 -11.52081,-14.73639 -20.26192,-32.10289 -20.71875,-51.16798 -0.0503,-1.0132 -0.10054,-2.0264 -0.15234,-3.07031 -0.48594,-16.4443 5.40042,-32.30211 16.52734,-44.49219 7.69662,-8.02704 16.31679,-13.38303 26.625,-17.4375 0.7541,-0.29777 1.50821,-0.59554 2.28516,-0.90234 6.29211,-2.16932 12.69372,-2.77055 19.29517,-3.27612 4.80321,-0.41996 8.13798,-1.44557 12.41967,-3.82154 9.63145,-3.19181 19.85461,-0.61497 29.27346,2.02734 z" fill="#090909" id="path4"></path>
  <path d="m 529.39975,577.44833 c 6.46594,-0.12375 6.46594,-0.12375 13.0625,-0.25 2.01879,-0.0546 2.01879,-0.0546 4.07837,-0.11035 6.82919,-0.0632 11.40121,0.0808 16.85913,4.36035 2.73992,3.88892 3.55824,7.36897 3.34375,12.04297 -0.60578,3.44879 -2.01751,5.3922 -4.34375,7.95703 -6.54153,3.85223 -13.02041,3.34409 -20.4375,3.1875 -4.14563,-0.0619 -8.29125,-0.12375 -12.5625,-0.1875 0,-8.91 0,-17.82 0,-27 z" fill="#fafafa" id="path12"></path>
  <path d="m 513.46225,212.38583 c 1.45406,0.0309 1.45406,0.0309 2.9375,0.0625 0.8125,2.1875 0.8125,2.1875 1,5 -3.31824,4.25149 -7.3185,6.52156 -12,9 2.37537,1.58358 4.76506,3.11594 7.1875,4.625 0.71543,0.44602 1.43086,0.89203 2.16797,1.35156 0.54269,0.33774 1.08539,0.67547 1.64453,1.02344 -0.875,4.875 -0.875,4.875 -2,6 -7.42868,0.77382 -13.02541,-1.936 -19.0625,-6.125 -0.63937,-0.61875 -1.27875,-1.2375 -1.9375,-1.875 0,-0.66 0,-1.32 0,-2 -1.25297,0.0232 -2.50594,0.0464 -3.79688,0.0703 -1.65103,0.0188 -3.30207,0.037 -4.95312,0.0547 -0.825,0.0168 -1.65,0.0335 -2.5,0.0508 -0.79922,0.006 -1.59844,0.0129 -2.42188,0.0195 -0.73315,0.0105 -1.4663,0.0209 -2.22168,0.0317 -2.4054,-0.25923 -4.01895,-1.03474 -6.10644,-2.227 0.33,-1.65 0.66,-3.3 1,-5 0.62342,0.0116 1.24685,0.0232 1.88916,0.0352 13.75735,0.14196 23.9631,-0.44288 35.11084,-9.03516 1,-1 1,-1 4.0625,-1.0625 z" fill="#0b0b0b" id="path13"></path>
  <path d="m 652.39975,311.44833 c 0.3125,2.25 0.3125,2.25 0,5 -4.09475,4.65954 -10.27532,6.11517 -16,8 0.5543,0.33773 1.10859,0.67547 1.67969,1.02344 0.72445,0.44601 1.4489,0.89203 2.19531,1.35156 0.7193,0.44086 1.43859,0.88172 2.17969,1.33594 1.94531,1.28906 1.94531,1.28906 3.94531,3.28906 0.1875,2.5625 0.1875,2.5625 0,5 -1,1 -1,1 -4.1875,1.3125 -6.98232,-0.57232 -11.33524,-5.30223 -15.8125,-10.3125 0,-0.99 0,-1.98 0,-3 -0.64066,-0.0374 -1.28133,-0.0748 -1.94141,-0.11328 -5.59742,-0.42544 -10.19194,-0.98744 -15.05859,-3.88672 -0.9375,-2.6875 -0.9375,-2.6875 -1,-5 3.40729,-1.09913 5.799,-0.92164 9.1875,-0.0625 9.48648,2.2505 15.83641,0.93907 24.80469,-2.82422 3.65302,-1.35209 6.18152,-1.5582 10.00781,-1.11328 z" fill="#090909" id="path14"></path>
  <path d="m 164.39975,293.44833 c 0.495,1.98 0.495,1.98 1,4 -1.05961,0.49371 -2.11922,0.98742 -3.21094,1.49609 -1.38803,0.64712 -2.77605,1.29426 -4.16406,1.94141 -0.69867,0.32549 -1.39734,0.65098 -2.11719,0.98633 -6.29564,2.7259 -6.29564,2.7259 -9.69531,8.26367 -2.39432,4.92284 -5.01616,8.54201 -9.8125,11.3125 -2.875,0.4375 -2.875,0.4375 -5,0 -0.33,-0.33 -0.66,-0.66 -1,-1 0.17036,-4.42934 0.55197,-6.48476 3.5,-9.875 0.825,-0.70125 1.65,-1.4025 2.5,-2.125 0.33,-0.33 0.66,-0.66 1,-1 -0.88043,-0.10957 -1.76086,-0.21914 -2.66797,-0.33203 -1.16144,-0.15856 -2.32289,-0.31711 -3.51953,-0.48047 -1.14856,-0.15082 -2.29711,-0.30164 -3.48047,-0.45703 -3.39117,-0.74344 -5.56108,-1.66115 -8.33203,-3.73047 -0.875,-2.625 -0.875,-2.625 -1,-5 0.33,-0.33 0.66,-0.66 1,-1 1.92578,0.0859 1.92578,0.0859 4.3125,0.375 0.77988,0.0902 1.55977,0.18047 2.36328,0.27344 2.32422,0.35156 2.32422,0.35156 4.28125,0.86718 8.89331,2.10855 16.57065,-0.01 24.81641,-3.42187 3.29627,-1.11738 5.775,-1.3023 9.22656,-1.09375 z" fill="#0a0909" id="path15"></path>
  <path d="m 420.39975,193.76083 c 0.70125,0.0786 1.4025,0.15727 2.125,0.23828 1.875,0.44922 1.875,0.44922 3.875,2.44922 -0.53571,3.53571 -0.53571,3.53571 -2,5 -6.27907,0.46512 -6.27907,0.46512 -8.9375,-1.25 -1.0625,-1.75 -1.0625,-1.75 -1.0625,-5.75 2.36894,-1.18447 3.40668,-1.0069 6,-0.6875 z" fill="#131312" id="path17"></path>
  <path d="m 557.39975,280.44833 c 6.625,-0.25 6.625,-0.25 10,2 0.25,2.5625 0.25,2.5625 0,5 -1,1 -1,1 -3.875,1.25 -3.125,-0.25 -3.125,-0.25 -5,-1.4375 -1.47281,-2.37286 -1.34723,-4.07164 -1.125,-6.8125 z" fill="#0a0a0a" id="path18"></path>
  <path d="m 203.39975,252.44833 c 0.33,1.65 0.66,3.3 1,5 -2.55069,2.35448 -3.71017,2.98328 -7.25,3.1875 -0.9075,-0.0619 -1.815,-0.12375 -2.75,-0.1875 -0.75,-1.75 -0.75,-1.75 -1,-4 2.85406,-4.10985 5.16015,-4.43999 10,-4 z" fill="#151515" id="path19"></path>
  <text xml:space="preserve" style="font-style:normal;font-variant:normal;font-weight:normal;font-stretch:normal;font-size:133.333px;font-family:Webdings;-inkscape-font-specification:'Webdings, Normal';font-variant-ligatures:normal;font-variant-caps:normal;font-variant-numeric:normal;font-variant-east-asian:normal;letter-spacing:4.38px;word-spacing:0px;opacity:1;fill:#fdfdfd;fill-opacity:1;stroke:#000000;stroke-width:7.559;stroke-linecap:square;stroke-linejoin:bevel;stroke-miterlimit:0;stroke-dasharray:none;stroke-dashoffset:0;stroke-opacity:1;paint-order:markers stroke fill" x="159.87338" y="668.49542" id="text21"><tspan sodipodi:role="line" id="tspan21" x="159.87338" y="668.49542" style="font-style:normal;font-variant:normal;font-weight:bold;font-stretch:normal;font-size:133.333px;font-family:'Whitney HTF';-inkscape-font-specification:'Whitney HTF, Medium';font-variant-ligatures:normal;font-variant-caps:normal;font-variant-numeric:normal;font-variant-east-asian:normal;opacity:1;fill:#1a1a1a;fill-opacity:1;stroke:none;stroke-opacity:1">hydraR</tspan></text>
</svg></svg><style>@media (prefers-color-scheme: light) { :root { filter: none; } }
@media (prefers-color-scheme: dark) { :root { filter: none; } }
</style></svg>